Coordinates
version=1
nRows=22
nColumns=24
inDegrees=yes

Units are S.I. units (second, meters, Newtons, ...)
Angles are in degrees.

endheader
time	pelvis_tilt	pelvis_list	pelvis_rotation	pelvis_tx	pelvis_ty	pelvis_tz	hip_flexion_r	hip_adduction_r	hip_rotation_r	knee_angle_r	ankle_angle_r	subtalar_angle_r	mtp_angle_r	hip_flexion_l	hip_adduction_l	hip_rotation_l	knee_angle_l	ankle_angle_l	subtalar_angle_l	mtp_angle_l	lumbar_extension	lumbar_bending	lumbar_rotation
      2.42000000	     62.74660193	    -15.22297173	      3.01005131	      0.53778886	      0.95199463	     -0.22908992	      3.27122949	     -9.94530405	    -15.44845153	    -62.54075133	    -17.21276337	      0.00000000	      0.00000000	     23.16482213	    -13.27402859	     12.54582341	    -13.72635203	    -36.07385003	      0.00000000	      0.00000000	      0.00000000	      0.00000000	      0.00000000
      2.43000000	     62.77538925	    -15.21858318	      3.01979023	      0.53777800	      0.95202761	     -0.22916182	      3.23411838	     -9.90308693	    -15.62426595	    -62.46235537	    -17.23820452	      0.00000000	      0.00000000	     23.11871574	    -13.25615491	     12.57882900	    -13.71343655	    -36.07641504	      0.00000000	      0.00000000	      0.00000000	      0.00000000	      0.00000000
      2.44000000	     62.80646150	    -15.21069924	      3.03521012	      0.53776898	      0.95204393	     -0.22926506	      3.19230318	     -9.86499948	    -15.81450534	    -62.38300705	    -17.27741561	      0.00000000	      0.00000000	     23.07375288	    -13.23501374	     12.60498275	    -13.70329578	    -36.07801905	      0.00000000	      0.00000000	      0.00000000	      0.00000000	      0.00000000
      2.45000000	     62.83905932	    -15.20423415	      3.06029807	      0.53775098	      0.95206031	     -0.22939215	      3.14563528	     -9.82600481	    -16.01640531	    -62.30095236	    -17.32561688	      0.00000000	      0.00000000	     23.03230234	    -13.21115308	     12.61898772	    -13.69599769	    -36.07944622	      0.00000000	      0.00000000	      0.00000000	      0.00000000	      0.00000000
      2.46000000	     62.87198524	    -15.20341209	      3.09857036	      0.53772562	      0.95209515	     -0.22955807	      3.09397457	     -9.78199596	    -16.22730133	    -62.21467548	    -17.37609188	      0.00000000	      0.00000000	     22.99690479	    -13.18532583	     12.61850562	    -13.69214559	    -36.08169567	      0.00000000	      0.00000000	      0.00000000	      0.00000000	      0.00000000
      2.47000000	     62.90416854	    -15.20958984	      3.15061930	      0.53770363	      0.95215013	     -0.22979388	      3.03798614	     -9.73039315	    -16.44539398	    -62.12390292	    -17.42177810	      0.00000000	      0.00000000	     22.97003824	    -13.15959463	     12.60447859	    -13.69235895	    -36.08535388	      0.00000000	      0.00000000	      0.00000000	      0.00000000	      0.00000000
      2.48000000	     62.93488112	    -15.22289964	      3.21400218	      0.53769804	      0.95221439	     -0.23007873	      2.97945780	     -9.67150598	    -16.66927769	    -62.03040680	    -17.45675984	      0.00000000	      0.00000000	     22.95336108	    -13.13695801	     12.58033077	    -13.69668532	    -36.09022569	      0.00000000	      0.00000000	      0.00000000	      0.00000000	      0.00000000
      2.49000000	     62.96371066	    -15.24385493	      3.28394649	      0.53771405	      0.95227487	     -0.23033893	      2.92115960	     -9.60816001	    -16.89774652	    -61.93851625	    -17.47735224	      0.00000000	      0.00000000	     22.94668487	    -13.11989714	     12.55067492	    -13.70450478	    -36.09535917	      0.00000000	      0.00000000	      0.00000000	      0.00000000	      0.00000000
      2.50000000	     62.99036519	    -15.27155186	      3.35377567	      0.53774052	      0.95231641	     -0.23054190	      2.86617750	     -9.54286358	    -17.13041974	    -61.85479870	    -17.48265452	      0.00000000	      0.00000000	     22.94750240	    -13.10937124	     12.52012201	    -13.71496747	    -36.09938873	      0.00000000	      0.00000000	      0.00000000	      0.00000000	      0.00000000
      2.51000000	     63.01462616	    -15.30216346	      3.41661019	      0.53775585	      0.95233405	     -0.23073526	      2.81713797	     -9.47648016	    -17.36686998	    -61.78574659	    -17.47446387	      0.00000000	      0.00000000	     22.95175829	    -13.10466604	     12.49232701	    -13.72734158	    -36.10100544	      0.00000000	      0.00000000	      0.00000000	      0.00000000	      0.00000000
      2.52000000	     63.03666746	    -15.33123508	      3.46853294	      0.53775167	      0.95234443	     -0.23096096	      2.77555404	     -9.41079528	    -17.60351979	    -61.73403302	    -17.45671864	      0.00000000	      0.00000000	     22.95574773	    -13.10388272	     12.46937246	    -13.74087680	    -36.09935693	      0.00000000	      0.00000000	      0.00000000	      0.00000000	      0.00000000
      2.53000000	     63.05707300	    -15.35624812	      3.51016559	      0.53774047	      0.95236125	     -0.23119467	      2.74115830	     -9.35044174	    -17.83197362	    -61.69679591	    -17.43481077	      0.00000000	      0.00000000	     22.95775102	    -13.10480795	     12.45164444	    -13.75459036	    -36.09425512	      0.00000000	      0.00000000	      0.00000000	      0.00000000	      0.00000000
      2.54000000	     63.07654365	    -15.37640038	      3.54537060	      0.53773390	      0.95237521	     -0.23138957	      2.71211947	     -9.30051580	    -18.04162445	    -61.66784217	    -17.41468671	      0.00000000	      0.00000000	     22.95802550	    -13.10545064	     12.43813676	    -13.76744812	    -36.08616821	      0.00000000	      0.00000000	      0.00000000	      0.00000000	      0.00000000
      2.55000000	     63.09573080	    -15.39102648	      3.57867494	      0.53772830	      0.95237257	     -0.23154226	      2.68632022	     -9.26226093	    -18.22476954	    -61.64177472	    -17.40159034	      0.00000000	      0.00000000	     22.95746562	    -13.10396251	     12.42703678	    -13.77879326	    -36.07602416	      0.00000000	      0.00000000	      0.00000000	      0.00000000	      0.00000000
      2.56000000	     63.11514129	    -15.39947253	      3.61324363	      0.53771573	      0.95235654	     -0.23168382	      2.66230879	     -9.23160408	    -18.38009235	    -61.61668215	    -17.39881950	      0.00000000	      0.00000000	     22.95641938	    -13.09838965	     12.41647211	    -13.78853300	    -36.06488254	      0.00000000	      0.00000000	      0.00000000	      0.00000000	      0.00000000
      2.57000000	     63.13499224	    -15.40233414	      3.65016214	      0.53769723	      0.95234429	     -0.23181576	      2.63920426	     -9.20201557	    -18.51237627	    -61.59388192	    -17.40711712	      0.00000000	      0.00000000	     22.95453657	    -13.08714016	     12.40521021	    -13.79695436	    -36.05357274	      0.00000000	      0.00000000	      0.00000000	      0.00000000	      0.00000000
      2.58000000	     63.15493120	    -15.40096693	      3.68865078	      0.53767660	      0.95235044	     -0.23191396	      2.61600153	     -9.16847481	    -18.62958017	    -61.57582667	    -17.42497691	      0.00000000	      0.00000000	     22.95135083	    -13.07052805	     12.39305452	    -13.80443355	    -36.04241620	      0.00000000	      0.00000000	      0.00000000	      0.00000000	      0.00000000
      2.59000000	     63.17408077	    -15.39610112	      3.72699846	      0.53765233	      0.95237858	     -0.23198462	      2.59114886	     -9.13013402	    -18.73900874	    -61.56365750	    -17.44957198	      0.00000000	      0.00000000	     22.94700913	    -13.05164663	     12.38074798	    -13.81114214	    -36.03115367	      0.00000000	      0.00000000	      0.00000000	      0.00000000	      0.00000000
      2.60000000	     63.19161326	    -15.38851975	      3.76386330	      0.53762572	      0.95241870	     -0.23205196	      2.56293157	     -9.09108305	    -18.84431734	    -61.55564614	    -17.47783286	      0.00000000	      0.00000000	     22.94245658	    -13.03480132	     12.36944421	    -13.81689321	    -36.01917848	      0.00000000	      0.00000000	      0.00000000	      0.00000000	      0.00000000
      2.61000000	     63.20727020	    -15.38006756	      3.79883830	      0.53760551	      0.95245136	     -0.23210851	      2.53042490	     -9.05814202	    -18.94526659	    -61.54785084	    -17.50732341	      0.00000000	      0.00000000	     22.93868864	    -13.02287294	     12.36013694	    -13.82137696	    -36.00602735	      0.00000000	      0.00000000	      0.00000000	      0.00000000	      0.00000000
      2.62000000	     63.22135546	    -15.37236875	      3.83165449	      0.53759898	      0.95246739	     -0.23212263	      2.49394473	     -9.03638202	    -19.04017547	    -61.53682265	    -17.53669768	      0.00000000	      0.00000000	     22.93588221	    -13.01603053	     12.35343756	    -13.82452809	    -35.99187744	      0.00000000	      0.00000000	      0.00000000	      0.00000000	      0.00000000
      2.63000000	     63.23398907	    -15.36465496	      3.86093720	      0.53760523	      0.95247507	     -0.23209501	      2.45425245	     -9.02571139	    -19.12859943	    -61.52208644	    -17.56561415	      0.00000000	      0.00000000	     22.93324220	    -13.01228188	     12.34971320	    -13.82666876	    -35.97778493	      0.00000000	      0.00000000	      0.00000000	      0.00000000	      0.00000000
